PathFileType	4	(X/Y/Z)	 s08c0001.trc
DataRate	CameraRate	NumFrames	NumMarkers	Units	OrigDataRate	OrigDataStartFrame	OrigNumFrames
200	200	5	49	mm	200	1501	2000
Frame#	Time	racr			lacr			c7			jug			rlel			rdr			llel			ldr			s2			lic			ric			lasi			rasi			rpsi			lpsi			rgt			lgt			rth1			rth2			rth3			rth4			rlfc			rmfc			rsh1			rsh2			rsh3			rsh4			rlmal			rmmal			rcal			rtoe			rmt5			rmt1			lth1			lth2			lth4			lth3			llfc			lmfc			llmal			lmmal			lcal			lmt1			lmt5			lsh1			lsh2			lsh3			lsh4			ltoe			
		X1	Y1	Z1	X2	Y2	Z2	X3	Y3	Z3	X4	Y4	Z4	X5	Y5	Z5	X6	Y6	Z6	X7	Y7	Z7	X8	Y8	Z8	X9	Y9	Z9	X10	Y10	Z10	X11	Y11	Z11	X12	Y12	Z12	X13	Y13	Z13	X14	Y14	Z14	X15	Y15	Z15	X16	Y16	Z16	X17	Y17	Z17	X18	Y18	Z18	X19	Y19	Z19	X20	Y20	Z20	X21	Y21	Z21	X22	Y22	Z22	X23	Y23	Z23	X24	Y24	Z24	X25	Y25	Z25	X26	Y26	Z26	X27	Y27	Z27	X28	Y28	Z28	X29	Y29	Z29	X30	Y30	Z30	X31	Y31	Z31	X32	Y32	Z32	X33	Y33	Z33	X34	Y34	Z34	X35	Y35	Z35	X36	Y36	Z36	X37	Y37	Z37	X38	Y38	Z38	X39	Y39	Z39	X40	Y40	Z40	X41	Y41	Z41	X42	Y42	Z42	X43	Y43	Z43	X44	Y44	Z44	X45	Y45	Z45	X46	Y46	Z46	X47	Y47	Z47	X48	Y48	Z48	X49	Y49	Z49	
1501	7.5050	425.667631	1529.237529	595.644924	413.583669	1543.859188	198.533101	367.101120	1584.100604	395.791892	496.745053	1487.215462	394.422056	384.471799	1235.852249	681.221894	459.985332	958.519018	790.828452	391.373441	1243.177173	99.185829	450.288532	971.822224	-3.745653	331.249861	1028.448215	404.974263	474.416881	1093.577339	237.905221	484.039507	1099.943474	556.215429	526.668893	1036.105689	269.656811	540.126084	1033.357446	521.436229	353.318911	1067.966425	452.505217	351.792715	1075.714726	353.168194	427.087023	955.413063	577.781497	431.162499	943.556093	212.648779	439.365869	804.072372	593.502440	460.673322	718.137706	589.009335	497.575352	718.712394	580.661860	437.043918	634.905775	578.940746	440.042728	511.691542	559.687077	424.159232	499.984609	456.154430	399.802346	387.323158	594.176116	422.613131	301.027660	576.311071	398.848802	218.315753	569.525692	449.175033	305.865558	546.205094	392.528022	97.752470	555.721288	407.352069	122.509203	469.969616	321.421432	65.468208	507.920793	612.038818	78.982375	510.554835	535.410502	47.869640	577.115082	538.708538	47.704107	464.042793	447.292651	814.985612	190.111396	466.356013	729.720763	193.699914	501.666959	729.751747	204.486464	439.156105	645.330062	196.896720	432.650688	518.726200	217.217379	438.114210	496.120431	315.868133	381.965514	107.168530	221.772636	412.185453	126.375684	302.059262	325.169362	74.322506	264.489829	541.961714	47.173447	295.871471	528.746299	43.031574	181.176600	410.585138	394.286607	190.936112	423.738550	310.635791	208.022774	394.684249	227.225442	207.790330	445.123779	313.021018	240.378179	610.567442	81.557630	243.136480	
1502	7.5100	425.717992	1529.221630	595.635955	413.620234	1543.846429	198.543164	367.138623	1584.105359	395.787960	496.795775	1487.224002	394.425028	384.505151	1235.859879	681.219520	460.028005	958.511924	790.821750	391.378993	1243.175006	99.202566	450.305741	971.834247	-3.752917	331.282799	1028.448787	404.986472	474.431942	1093.562568	237.908327	484.098823	1099.946949	556.179821	526.675489	1036.096470	269.641572	540.145231	1033.351098	521.442915	353.333665	1067.970054	452.506581	351.819746	1075.719435	353.165284	427.088365	955.408979	577.779294	431.169748	943.581637	212.656498	439.377228	804.078414	593.495733	460.673795	718.138770	589.011530	497.565431	718.719702	580.667883	437.030240	634.900113	578.946101	440.049852	511.690330	559.657062	424.152183	499.980386	456.160463	399.842936	387.365687	594.163615	422.602397	301.030029	576.316961	398.846479	218.311346	569.542445	449.172834	305.860007	546.203612	392.541956	97.748222	555.711036	407.391991	122.522076	469.956303	321.416420	65.466363	507.931916	612.055670	78.952055	510.553362	535.404199	47.854864	577.123926	538.672857	47.713777	464.038295	447.278956	814.987991	190.102212	466.356124	729.720174	193.701542	501.693824	729.754623	204.495767	439.155707	645.338636	196.889305	432.665168	518.708652	217.223156	438.086293	496.129358	315.839456	381.983710	107.160493	221.778816	412.167433	126.387889	302.076433	325.173869	74.304706	264.503123	541.965782	47.168688	295.870246	528.743312	43.036920	181.173270	410.586637	394.275703	190.929890	423.741990	310.634627	208.012167	394.683792	227.224035	207.788735	445.066723	312.976252	240.333985	610.556359	81.549032	243.123264	
1503	7.5150	425.759147	1529.230082	595.631754	413.629633	1543.848021	198.565564	367.165790	1584.106656	395.794989	496.827823	1487.224036	394.420908	384.546238	1235.857473	681.210340	460.074643	958.514130	790.809281	391.404048	1243.175517	99.198578	450.319346	971.822954	-3.747366	331.288821	1028.465814	404.990554	474.453813	1093.578078	237.902383	484.109671	1099.933557	556.197456	526.696545	1036.092119	269.657303	540.181793	1033.353825	521.442209	353.348401	1067.969151	452.498461	351.820684	1075.734944	353.185503	427.121129	955.422558	577.783761	431.181797	943.565317	212.663664	439.382157	804.070400	593.496228	460.677713	718.135060	589.024379	497.579608	718.729051	580.685910	437.045325	634.909506	578.936587	440.037001	511.694349	559.671421	424.157598	499.986135	456.152273	399.842914	387.338644	594.118466	422.597473	301.033322	576.325101	398.843047	218.315264	569.540719	449.189041	305.845533	546.219208	392.546369	97.744760	555.705150	407.372069	122.524406	469.975613	321.434803	65.445677	507.949783	612.049736	78.961573	510.550184	535.405542	47.862827	577.117171	538.692656	47.718598	464.037859	447.302445	814.986297	190.119396	466.366479	729.723871	193.670173	501.697532	729.738177	204.473209	439.174227	645.345260	196.891427	432.662552	518.731697	217.223452	438.098398	496.115206	315.854632	381.984639	107.167978	221.772828	412.174506	126.404218	302.071704	325.165434	74.308948	264.508024	541.978282	47.163784	295.856219	528.720837	43.030166	181.161702	410.584191	394.289902	190.925183	423.766860	310.662872	208.040155	394.686248	227.213579	207.793111	445.095624	312.982917	240.340755	610.554979	81.554128	243.125072	
1504	7.5200	425.805198	1529.246659	595.621227	413.661290	1543.847089	198.550983	367.219350	1584.117865	395.789380	496.869950	1487.196533	394.418539	384.591585	1235.874859	681.220001	460.133634	958.513239	790.804682	391.427633	1243.171878	99.198318	450.339625	971.824050	-3.746740	331.318885	1028.477853	404.988673	477.414313	1093.693185	238.934338	484.138841	1099.933679	556.195851	526.704590	1036.099969	269.643637	540.196554	1033.336079	521.437843	353.359115	1067.976188	452.513971	351.846840	1075.732195	353.187000	427.137512	955.428562	577.799054	431.194554	943.567546	212.660071	439.386013	804.079681	593.508227	460.683763	718.136303	589.021248	497.583510	718.696727	580.683749	437.042167	634.898991	578.946748	440.047506	511.699636	559.678254	424.155281	499.985741	456.169433	399.852303	387.343024	594.123247	422.606599	301.044190	576.321643	398.867550	218.309763	569.550830	449.174343	305.832141	546.204754	392.532957	97.748483	555.715863	407.406138	122.527724	469.981937	321.416598	65.466827	507.931738	612.066211	78.962287	510.550788	535.414255	47.843532	577.143000	538.708550	47.704081	464.042814	447.303468	814.988532	190.089723	466.369534	729.722332	193.699352	501.698265	729.728843	204.481559	439.178374	645.318368	196.888849	432.701487	518.705838	217.214759	438.091201	496.110697	315.865145	381.965927	107.167513	221.775606	412.194859	126.359141	302.057104	325.163496	74.332866	264.501169	541.967418	47.178182	295.859693	528.723799	43.024823	181.165045	410.596559	394.280404	190.939293	423.772406	310.611492	208.056055	394.691981	227.217935	207.792662	445.099817	313.001070	240.345877	610.547826	81.555298	243.133968	
1505	7.5250	425.859015	1529.239883	595.629297	413.691011	1543.854616	198.552159	367.279807	1584.116359	395.777728	496.887599	1487.204969	394.390471	384.630027	1235.864841	681.215889	460.162330	958.515239	790.801457	391.438549	1243.169430	99.187466	450.349989	971.821519	-3.741098	331.336482	1028.458463	404.994943	474.535493	1093.574886	237.904656	484.181429	1099.919170	556.192786	526.720335	1036.086550	269.648544	540.204654	1033.344171	521.440206	353.382571	1067.979878	452.526443	351.851120	1075.722425	353.181135	427.154300	955.414335	577.789674	431.196870	943.570410	212.654421	439.394023	804.066775	593.502057	460.683771	718.136295	589.021234	497.604591	718.711704	580.694478	437.043354	634.900915	578.949950	440.043959	511.704221	559.673540	424.132782	500.000426	456.164128	399.881890	387.373181	594.120237	422.607361	301.021917	576.318797	398.862014	218.318889	569.540151	449.198290	305.860254	546.224465	392.505577	97.767749	555.706500	407.471762	122.451876	470.039774	321.416600	65.466831	507.931737	612.067591	78.972917	510.560297	535.420158	47.844419	577.133780	538.685738	47.712664	464.027705	447.311450	814.993488	190.080457	466.385873	729.696542	193.707820	501.696905	729.731115	204.483088	439.175272	645.334683	196.891999	432.681680	518.710587	217.231486	438.100035	496.115744	315.859935	381.986584	107.166532	221.784394	412.172773	126.365216	302.037905	325.184098	74.314653	264.512124	541.954145	47.155607	295.874772	528.720853	43.030133	181.161724	410.603906	394.271209	190.947723	423.749964	310.638348	208.003359	394.688729	227.227936	207.779911	445.097680	312.994662	240.358533	610.554541	81.540784	243.111701	
